PathFileType	4	(X/Y/Z)	C:/Users/opensim2020/Desktop/walking_exp_matlab/subject06_walking18_straight_02.trc																																																																																																																																											
DataRate	CameraRate	NumFrames	NumMarkers	Units	OrigDataRate	OrigDataStartFrame	OrigNumFrames																																																																																																																																							
100	100	6	47	mm	100	2374	326																																																																																																																																							
Frame#	Time	LFHD			RFHD			LBHD			RBHD			C7			T10			CLAV			STRN			RBAK			LSHO			LUPA			LELB			LFRM			LWRA			LWRB			LFIN			RSHO			RUPA			RELB			RFRM			RWRA			RWRB			RFIN			LASI			RASI			LPSI			RPSI			LTHI			LKNE			LTIB			LANK			LHEE			LTOE			RTHI			RKNE			RTIB			RANK			RHEE			RTOE			*39			*40			*41			*42			*43			*44			*45			*46		
		X1	Y1	Z1	X2	Y2	Z2	X3	Y3	Z3	X4	Y4	Z4	X5	Y5	Z5	X6	Y6	Z6	X7	Y7	Z7	X8	Y8	Z8	X9	Y9	Z9	X10	Y10	Z10	X11	Y11	Z11	X12	Y12	Z12	X13	Y13	Z13	X14	Y14	Z14	X15	Y15	Z15	X16	Y16	Z16	X17	Y17	Z17	X18	Y18	Z18	X19	Y19	Z19	X20	Y20	Z20	X21	Y21	Z21	X22	Y22	Z22	X23	Y23	Z23	X24	Y24	Z24	X25	Y25	Z25	X26	Y26	Z26	X27	Y27	Z27	X28	Y28	Z28	X29	Y29	Z29	X30	Y30	Z30	X31	Y31	Z31	X32	Y32	Z32	X33	Y33	Z33	X34	Y34	Z34	X35	Y35	Z35	X36	Y36	Z36	X37	Y37	Z37	X38	Y38	Z38	X39	Y39	Z39	X40	Y40	Z40	X41	Y41	Z41	X42	Y42	Z42	X43	Y43	Z43	X44	Y44	Z44	X45	Y45	Z45	X46	Y46	Z46	X47	Y47	Z47
																																																																																																																																														
123	1.22	-483.82788	1652.09814	952.81482	-476.76254	1648.35364	1085.0354	-617.07214	1598.64319	963.03174	-608.03375	1599.77649	1091.91736	-618.17047	1445.04822	1025.78882	-656.01831	1116.57141	1045.47571	-509.17374	1366.61926	1027.70581	-472.05603	1190.50085	1030.49902	-690.44812	1278.44971	1115.6842	-565.19312	1391.51355	865.16461	-598.11945	1190.03687	800.49683	-622.23676	1080.36963	792.07153	-620.35803	930.10126	768.42584	-570.63232	809.29346	804.61365	-635.23517	811.91827	773.21179	-603.76453	725.92731	769.85974	-549.40997	1406.3728	1187.98157	-585.23346	1211.38831	1284.14392	-575.11591	1089.73108	1297.28821	-544.39996	973.61023	1310.32178	-469.19742	846.05536	1266.79041	-516.57117	839.52728	1314.24915	-468.73053	769.94049	1309.51428	-473.94101	964.56128	936.20337	-484.88309	956.13806	1156.37317	-634.50165	985.35425	958.14026	-634.79761	979.62323	1126.16467	-506.79846	651.42938	866.4635	-485.06552	489.68524	889.23889	-476.97775	232.96104	898.07562	-448.38672	62.85252	941.6264	-483.69141	46.3423	989.27643	-301.35995	43.95874	945.42377	-547.27777	615.65033	1196.75464	-548.80383	488.48962	1177.12219	-708.84216	273.3006	1177.65015	-822.89954	124.09666	1140.5824	-872.54681	119.80067	1098.8811	-702.64752	32.58508	1131.4884	-580.45129	1694.2572	1015.52826	NaN	NaN	NaN	NaN	NaN	NaN	NaN	NaN	NaN	NaN	NaN	NaN	NaN	NaN	NaN	NaN	NaN	NaN	NaN	NaN	NaN
124	1.23	-477.56924	1653.0188	951.10425	-470.73013	1649.40833	1083.38281	-611.06818	1600.09607	961.29181	-602.11597	1601.29395	1090.18762	-612.28882	1445.98718	1024.172	-649.43677	1117.56519	1043.51599	-503.16269	1367.89978	1026.29346	-465.46814	1191.94104	1029.00964	-684.40887	1279.44958	1114.11426	-559.09259	1392.82971	863.69055	-590.65088	1191.2373	798.77747	-613.81042	1081.3595	790.35382	-610.38538	930.97766	767.78387	-560.93817	810.30902	804.70984	-625.28015	812.75531	772.04071	-593.4848	726.86267	769.54871	-543.85718	1407.67041	1186.34119	-579.55255	1212.74451	1282.57605	-569.90625	1091.00159	1295.58557	-539.85657	974.70166	1308.90234	-465.13464	846.57379	1265.94617	-512.93658	840.44482	1313.25488	-465.52087	770.35779	1308.58337	-467.17688	965.35376	934.36658	-478.14362	957.56354	1154.33557	-627.3811	986.46509	955.99927	-628.08514	980.89124	1123.93848	-502.12918	651.80786	865.10651	-482.38351	489.67566	887.72467	-476.01709	232.99107	897.367	-448.26022	62.74133	941.49866	-483.70071	46.39649	989.13757	-301.37177	43.55192	945.29041	-538.38617	616.79681	1196.31091	-537.8927	489.43637	1177.35132	-701.30792	277.35867	1177.11621	-817.45972	129.99025	1139.87708	-866.70306	127.59296	1097.58655	-701.73334	32.67892	1131.14148	-574.09021	1695.62	1013.68909	NaN	NaN	NaN	NaN	NaN	NaN	NaN	NaN	NaN	NaN	NaN	NaN	NaN	NaN	NaN	NaN	NaN	NaN	NaN	NaN	NaN
125	1.24	-471.54398	1653.82568	949.43939	-464.75732	1650.35938	1081.71948	-605.10284	1601.32166	959.54187	-596.32526	1602.68872	1088.43542	-606.54828	1446.77539	1022.59668	-643.27716	1118.56592	1041.52515	-497.21353	1369.0531	1024.80798	-458.90509	1193.28198	1027.44739	-678.22943	1280.21936	1112.37952	-553.00104	1394.09351	862.21594	-583.23553	1192.37476	797.02429	-605.48737	1082.31287	788.62341	-601.12762	931.96765	766.25647	-553.16046	811.0929	805.95197	-615.09845	813.55249	771.07166	-582.84265	727.8808	769.18744	-538.38403	1408.84314	1184.7522	-573.94141	1214.09717	1281.17761	-564.78131	1092.17651	1293.9873	-535.33466	975.72797	1307.58203	-461.1376	847.0426	1265.05383	-509.0661	841.20264	1312.05566	-462.22726	770.71338	1307.56372	-460.37918	965.92151	932.63647	-471.54337	958.9281	1152.27405	-620.24683	987.49841	953.72028	-621.46552	981.98291	1121.55774	-497.9418	652.05768	864.00732	-479.62915	489.63342	886.18842	-474.89343	233.04613	896.95056	-448.11801	62.6485	941.50024	-483.60782	46.43273	989.1106	-301.2926	43.16731	945.24036	-529.17896	617.9425	1196.02747	-526.54297	490.47461	1178.0459	-693.06653	281.32959	1176.89001	-811.44055	136.01578	1139.41431	-859.84296	135.17456	1096.39185	-700.63544	32.93901	1130.82117	-567.95789	1696.82593	1011.85846	NaN	NaN	NaN	NaN	NaN	NaN	NaN	NaN	NaN	NaN	NaN	NaN	NaN	NaN	NaN	NaN	NaN	NaN	NaN	NaN	NaN
126	1.25	-465.69571	1654.68555	947.80908	-458.95044	1651.21912	1080.10254	-599.26343	1602.30066	957.83417	-590.66907	1603.78027	1086.74658	-600.69415	1447.40747	1020.94885	-636.79742	1119.24475	1039.26514	-491.10681	1370.11072	1023.25751	-452.43039	1194.47571	1025.87195	-672.15021	1280.78528	1110.4071	-546.94269	1395.28394	860.72473	-575.88385	1193.43701	795.20233	-597.08606	1083.14404	786.85315	-591.06311	932.79706	765.11151	-542.51929	812.58728	805.34576	-604.60425	814.29822	769.95715	-571.87817	728.82843	768.79913	-532.854	1409.79565	1183.09448	-568.46069	1215.25769	1279.73315	-559.53375	1093.19604	1292.41553	-530.70526	976.57727	1306.26404	-457.061	847.42444	1264.17029	-505.17731	841.91272	1311.10645	-458.84161	770.97473	1306.5459	-453.65152	966.23651	931.0152	-465.18094	960.20374	1150.35767	-613.24408	988.42004	951.3551	-615.39514	983.11322	1119.18738	-493.3671	652.19794	862.5918	-476.57019	489.52637	884.73541	-473.8959	232.87126	896.2337	-447.82755	62.56123	941.49927	-483.45358	46.58783	989.08679	-301.1207	42.64847	945.2713	-519.84808	619.10614	1195.83215	-515.31366	491.65488	1178.81543	-684.30762	285.54065	1176.85706	-804.92981	142.15465	1139.2356	-852.66656	143.10541	1095.72595	-699.39673	33.57122	1130.69019	-562.01349	1697.79529	1010.10327	NaN	NaN	NaN	NaN	NaN	NaN	NaN	NaN	NaN	NaN	NaN	NaN	NaN	NaN	NaN	NaN	NaN	NaN	NaN	NaN	NaN
127	1.26	-459.87262	1655.25195	946.16071	-453.36575	1651.99939	1078.51147	-593.57062	1603.00476	956.15442	-585.07745	1604.60486	1085.22986	-594.85712	1447.91077	1019.34033	-630.40778	1119.72217	1036.94531	-485.20798	1370.96338	1021.74713	-445.96097	1195.44189	1024.19299	-666.0993	1281.11328	1108.23584	-540.91382	1396.34216	859.20526	-568.52832	1194.4386	793.38208	-588.7464	1083.87476	785.09625	-581.17444	933.39166	764.1214	-532.37573	813.78577	805.04248	-593.95966	814.91919	768.52527	-560.46423	729.5799	768.39496	-527.4184	1410.48633	1181.45789	-563.08948	1216.06506	1278.33826	-554.34442	1093.98376	1290.88184	-526.01611	977.23914	1305.01306	-452.96878	847.61603	1263.24072	-501.16217	842.31036	1310.12744	-455.22055	771.06934	1305.47632	-446.9404	966.40326	929.42499	-459.10675	961.19409	1148.54199	-606.42358	989.20343	949.01691	-609.14838	983.88409	1116.68835	-488.49356	652.35706	861.21191	-473.32059	489.40179	883.35352	-472.29648	232.67586	895.58398	-447.38669	62.41663	941.52191	-483.22049	46.71605	989.10089	-300.9021	41.97981	945.375	-510.3508	620.17474	1195.77087	-503.78363	492.70337	1179.70776	-675.03308	289.57187	1177.0415	-798.07056	148.49257	1139.20642	-845.0199	150.9254	1095.35083	-697.74524	34.47736	1130.54712	-556.29388	1698.52905	1008.43811	NaN	NaN	NaN	NaN	NaN	NaN	NaN	NaN	NaN	NaN	NaN	NaN	NaN	NaN	NaN	NaN	NaN	NaN	NaN	NaN	NaN
128	1.27	-454.29962	1655.91406	944.5921	-447.83252	1652.66296	1076.97144	-587.95233	1603.4635	954.4422	-579.39008	1605.06824	1083.48218	-588.95758	1448.31104	1017.61176	-624.12347	1120.00891	1034.50769	-479.15558	1371.56995	1020.13708	-439.49149	1196.17444	1022.44202	-660.06573	1281.24463	1106.00037	-534.72864	1397.18506	857.60852	-561.25507	1195.18408	791.50781	-580.55695	1084.44617	783.35358	-571.83502	933.88495	762.51117	-522.09052	814.94019	805.01874	-582.97339	815.28845	767.4834	-549.03387	730.42102	767.90033	-521.89606	1410.91467	1179.82361	-557.62671	1216.70923	1276.77075	-549.20074	1094.56567	1289.3761	-521.37042	977.73169	1303.74768	-448.67624	847.72064	1262.33118	-497.1456	842.68616	1309.099	-451.44357	771.02448	1304.44641	-440.31223	966.42773	927.8559	-453.05371	962.02625	1146.70337	-599.74432	989.78864	946.72925	-603.16791	984.42072	1114.4231	-483.48593	652.42444	859.88391	-469.81058	489.26883	882.01453	-470.36707	232.51877	894.8562	-446.86835	62.29715	941.54498	-481.5788	45.4863	990.82062	-300.57803	41.34254	945.78162	-500.81064	621.14777	1195.75793	-492.17023	493.68781	1180.62292	-665.74359	293.50278	1177.25439	-790.61652	154.50316	1139.27173	-837.2829	158.745	1095.50867	-695.40143	36.30138	1130.74512	-550.84723	1699.04492	1006.77448	NaN	NaN	NaN	NaN	NaN	NaN	NaN	NaN	NaN	NaN	NaN	NaN	NaN	NaN	NaN	NaN	NaN	NaN	NaN	NaN	NaN
